<svg class="svg-icon" style="width: 1em;height: 1em;vertical-align: middle;fill: currentColor;overflow: hidden;" viewBox="0 0 1024 1024" version="1.1" xmlns="http://www.w3.org/2000/svg"><path d="M875.52 87.04H148.48c-33.792 0-61.44 27.648-61.44 61.44v727.04c0 33.792 27.648 61.44 61.44 61.44h271.36c11.3152 0 20.48-9.1648 20.48-20.48s-9.1648-20.48-20.48-20.48H148.48c-11.264 0-20.48-9.216-20.48-20.48V148.48c0-11.264 9.216-20.48 20.48-20.48h727.04c11.264 0 20.48 9.216 20.48 20.48v271.36c0 11.3152 9.1648 20.48 20.48 20.48s20.48-9.1648 20.48-20.48V148.48c0-33.792-27.648-61.44-61.44-61.44z" fill="#666666" /><path d="M281.6 276.48h460.8c11.3152 0 20.48-9.1648 20.48-20.48s-9.1648-20.48-20.48-20.48H281.6c-11.3152 0-20.48 9.1648-20.48 20.48s9.1648 20.48 20.48 20.48zM281.6 435.2h245.76c11.3152 0 20.48-9.1648 20.48-20.48s-9.1648-20.48-20.48-20.48H281.6c-11.3152 0-20.48 9.1648-20.48 20.48s9.1648 20.48 20.48 20.48zM721.92 547.84c0-11.3152-9.1648-20.48-20.48-20.48s-20.48 9.1648-20.48 20.48v153.6c0 11.3152 9.1648 20.48 20.48 20.48h153.6c11.3152 0 20.48-9.1648 20.48-20.48s-9.1648-20.48-20.48-20.48h-133.12v-133.12z" fill="#666666" /><path d="M701.44 465.92c-130.0992 0-235.52 105.4208-235.52 235.52s105.4208 235.52 235.52 235.52 235.52-105.4208 235.52-235.52-105.4208-235.52-235.52-235.52z m0 430.08c-107.264 0-194.56-87.296-194.56-194.56s87.296-194.56 194.56-194.56 194.56 87.296 194.56 194.56-87.296 194.56-194.56 194.56z" fill="#666666" /></svg>